<svg xmlns="http://www.w3.org/2000/svg" width="960" height="560" viewBox="0 0 960 560" role="img" aria-label="Notes app dark theme">
  <defs>
    <filter id="shadow" x="-5%" y="-5%" width="110%" height="110%">
      <feDropShadow dx="0" dy="12" stdDeviation="24" flood-color="#000" flood-opacity="0.45"/>
    </filter>
    <linearGradient id="bg" x1="0" y1="0" x2="1" y2="1">
      <stop offset="0%" stop-color="#09090b"/>
      <stop offset="100%" stop-color="#18181b"/>
    </linearGradient>
  </defs>
  <rect width="960" height="560" fill="url(#bg)"/>
  <rect x="48" y="40" width="864" height="480" rx="16" fill="#09090b" filter="url(#shadow)" stroke="#27272a"/>
  <rect x="48" y="40" width="280" height="480" rx="16" fill="#09090b"/>
  <rect x="312" y="40" width="1" height="480" fill="#27272a"/>
  <text x="72" y="78" font-family="Georgia, serif" font-size="22" font-weight="600" fill="#f4f4f5">Notes</text>
  <rect x="240" y="58" width="64" height="28" rx="8" fill="#f59e0b"/>
  <text x="272" y="77" text-anchor="middle" font-family="system-ui,sans-serif" font-size="12" font-weight="600" fill="#09090b">New</text>
  <rect x="72" y="104" width="232" height="36" rx="8" fill="#18181b" stroke="#3f3f46"/>
  <text x="88" y="126" font-family="system-ui,sans-serif" font-size="13" fill="#71717a">Search notes…</text>
  <rect x="48" y="160" width="264" height="72" fill="#3f3f46b3"/>
  <text x="72" y="188" font-family="system-ui,sans-serif" font-size="14" font-weight="600" fill="#f4f4f5">Welcome to Notes</text>
  <text x="72" y="210" font-family="system-ui,sans-serif" font-size="12" fill="#a1a1aa">A calm place for thoughts…</text>
  <circle cx="300" cy="184" r="4" fill="#fbbf24"/>
  <text x="72" y="250" font-family="system-ui,sans-serif" font-size="14" font-weight="500" fill="#e4e4e7">Ideas worth keeping</text>
  <text x="72" y="272" font-family="system-ui,sans-serif" font-size="12" fill="#a1a1aa">Morning pages without the…</text>
  <text x="72" y="312" font-family="system-ui,sans-serif" font-size="14" font-weight="500" fill="#e4e4e7">Keyboard shortcuts</text>
  <text x="72" y="334" font-family="system-ui,sans-serif" font-size="12" fill="#a1a1aa">N — New note · ⌘K search</text>
  <rect x="313" y="40" width="599" height="480" fill="#18181b"/>
  <text x="360" y="72" font-family="system-ui,sans-serif" font-size="12" fill="#71717a">Edited 3h ago</text>
  <text x="360" y="140" font-family="Georgia, serif" font-size="32" font-weight="600" fill="#f4f4f5">Welcome to Notes</text>
  <text x="360" y="188" font-family="system-ui,sans-serif" font-size="15" fill="#e4e4e7">A calm place for thoughts.</text>
  <text x="360" y="216" font-family="system-ui,sans-serif" font-size="15" fill="#e4e4e7">• Create a note with N</text>
  <text x="360" y="240" font-family="system-ui,sans-serif" font-size="15" fill="#e4e4e7">• Search everything with ⌘K</text>
  <text x="360" y="264" font-family="system-ui,sans-serif" font-size="15" fill="#e4e4e7">• Edits autosave as you type</text>
  <text x="480" y="536" text-anchor="middle" font-family="system-ui,sans-serif" font-size="13" font-weight="600" fill="#a1a1aa">Dark</text>
</svg>
